<?xml version="1.0" standalone="no"?>
<!DOCTYPE svg PUBLIC "-//W3C//DTD SVG 20010904//EN"
 "http://www.w3.org/TR/2001/REC-SVG-20010904/DTD/svg10.dtd">
<svg version="1.0" xmlns="http://www.w3.org/2000/svg"
 width="1120.000000pt" height="1120.000000pt" viewBox="0 0 1120.000000 1120.000000"
 preserveAspectRatio="xMidYMid meet">

<g transform="translate(0.000000,1120.000000) scale(0.100000,-0.100000)"
fill="#000000" stroke="none">
<path d="M7193 9814 c3 -5 -370 -8 -869 -6 -569 2 -874 0 -874 -7 0 -5 10 -12
23 -14 15 -3 11 -5 -12 -6 l-35 -1 33 -29 c26 -24 29 -30 16 -35 -9 -3 -21 -4
-25 -1 -5 3 -11 1 -15 -4 -3 -6 -12 -8 -20 -5 -8 3 -29 -8 -46 -24 -28 -26
-31 -33 -20 -46 19 -23 9 -42 -12 -22 -17 17 -37 14 -37 -6 0 -5 6 -8 14 -5 8
3 19 0 25 -7 9 -10 6 -13 -11 -12 -13 1 -26 -2 -29 -7 -4 -5 -16 -4 -28 2 -18
10 -21 9 -21 -9 0 -11 -3 -19 -7 -19 -23 4 -35 -3 -30 -15 4 -9 -2 -17 -14
-21 -25 -8 -43 -41 -27 -51 6 -4 8 -3 4 4 -3 6 -2 13 4 17 5 3 10 -1 10 -9 0
-24 -27 -36 -79 -36 -25 0 -30 -5 -33 -27 -3 -26 -3 -26 -22 -8 -18 18 -18 18
-11 -13 4 -21 3 -32 -5 -32 -6 0 -9 -4 -6 -8 2 -4 0 -14 -6 -22 -8 -13 -9 -12
-5 1 4 12 -2 16 -21 17 -15 1 -36 3 -47 4 -15 2 -22 -5 -30 -29 -6 -21 -16
-33 -26 -33 -14 0 -17 -8 -15 -34 2 -18 -3 -44 -10 -57 -7 -13 -14 -19 -14
-14 0 6 -4 4 -9 -4 -6 -9 -15 -11 -27 -6 -27 12 -74 14 -80 3 -3 -5 -10 -36
-14 -70 -5 -34 -15 -65 -22 -69 -10 -7 -10 -9 0 -9 6 0 12 -4 12 -10 0 -5 -8
-10 -19 -10 -10 0 -24 -7 -31 -15 -7 -8 -19 -15 -26 -15 -8 0 -14 -6 -14 -14
0 -20 -39 -46 -58 -39 -12 5 -14 1 -9 -23 3 -16 4 -23 1 -16 -3 6 -10 12 -15
12 -6 0 -8 -4 -5 -9 3 -5 -1 -12 -10 -15 -24 -9 -31 -7 -14 4 13 8 12 10 -2
10 -13 0 -18 -8 -18 -25 0 -29 -16 -34 -23 -7 -3 10 -5 6 -6 -11 0 -16 -5 -26
-11 -22 -5 3 -10 1 -10 -5 0 -7 -6 -10 -14 -7 -8 3 -23 -6 -35 -22 -16 -21
-29 -27 -49 -25 -27 4 -27 4 -2 -4 23 -7 26 -13 22 -42 -1 -5 -27 -24 -57 -41
-30 -17 -55 -37 -55 -44 0 -7 -6 -15 -13 -18 -7 -3 -19 -23 -26 -46 -8 -30
-17 -41 -31 -41 -11 0 -20 -7 -20 -15 0 -8 -9 -15 -20 -15 -18 0 -25 -11 -21
-33 1 -5 -3 -6 -9 -2 -5 3 -10 1 -10 -6 0 -7 -7 -4 -15 7 -8 10 -15 15 -14 9
1 -5 1 -25 0 -44 l-1 -34 -60 6 c-35 4 -62 3 -65 -3 -3 -6 -1 -10 4 -10 6 0
11 -14 11 -31 0 -16 -4 -28 -8 -25 -4 2 -14 1 -22 -5 -13 -7 -12 -9 3 -9 23 0
22 -17 -3 -30 -14 -7 -20 -7 -20 0 0 5 -5 10 -11 10 -5 0 -8 -4 -5 -9 5 -7
-62 -60 -93 -73 -4 -2 -20 -21 -36 -42 -17 -22 -23 -37 -15 -32 8 4 5 -1 -8
-12 -16 -15 -18 -22 -10 -26 7 -4 3 -4 -9 -2 -16 3 -23 -2 -27 -20 -4 -13 -11
-24 -16 -24 -5 0 -7 7 -4 15 5 11 2 13 -10 9 -8 -3 -18 -14 -21 -25 -4 -10
-13 -19 -21 -19 -8 0 -14 -4 -14 -10 0 -5 -14 -10 -31 -10 -27 0 -30 -3 -29
-27 3 -45 1 -52 -21 -64 -28 -15 -46 2 -25 24 12 11 13 16 3 20 -9 3 -9 7 2
20 7 9 18 14 24 10 7 -4 8 0 2 13 -4 10 -10 32 -13 49 -4 26 -6 27 -12 10 -5
-15 -8 -9 -11 23 -3 23 -1 42 3 42 5 0 8 -7 8 -17 0 -32 13 -3 16 35 1 20 0
30 -2 21 -4 -13 -13 -16 -43 -12 l-38 5 -13 -65 c-12 -64 -12 -65 -39 -57 -27
8 -64 -15 -44 -29 11 -7 12 -51 1 -51 -4 0 -8 5 -8 10 0 6 -4 10 -10 10 -5 0
-10 -8 -10 -17 0 -15 -2 -16 -10 -3 -9 13 -10 13 -10 -1 0 -8 5 -20 11 -26 8
-8 8 -13 0 -17 -6 -4 -11 -13 -11 -19 0 -7 7 -3 15 7 11 15 18 16 28 8 11 -9
13 -7 13 11 -1 19 4 22 37 23 39 1 49 -14 23 -38 -12 -11 -12 -17 1 -41 7 -15
12 -31 9 -35 -2 -4 -28 -5 -56 -3 -35 2 -48 6 -39 12 9 6 3 8 -18 6 -18 -1
-33 -5 -33 -9 0 -5 -7 -8 -15 -8 -12 0 -13 -4 -5 -19 13 -25 13 -54 0 -46 -5
3 -10 1 -10 -4 0 -6 8 -11 18 -11 11 0 27 -8 36 -19 16 -17 16 -19 0 -25 -10
-4 -21 -1 -26 6 -5 9 -8 3 -8 -15 0 -16 -4 -26 -10 -22 -6 3 -7 -1 -4 -9 7
-18 -21 -23 -31 -6 -3 6 -2 10 2 10 14 0 2 84 -13 93 -8 4 -14 19 -14 31 0 13
-7 26 -15 30 -8 3 -15 1 -15 -5 0 -5 -6 -9 -12 -8 -30 4 -38 -3 -38 -31 0 -19
-4 -28 -13 -25 -9 4 -11 -7 -8 -41 2 -28 6 -42 11 -34 4 7 15 10 24 7 11 -5
16 -19 16 -52 0 -46 -20 -82 -39 -71 -5 3 -7 -4 -3 -16 3 -14 2 -19 -6 -14 -7
4 -12 1 -12 -9 0 -9 -4 -14 -9 -11 -5 3 -8 -2 -7 -12 1 -11 -5 -16 -16 -14
-13 2 -18 -4 -20 -25 0 -15 -2 -34 -2 -42 -1 -8 -7 -16 -14 -19 -6 -2 -12 -10
-12 -18 0 -9 4 -13 10 -9 5 3 19 -4 30 -15 11 -11 26 -18 32 -14 6 4 8 3 5 -3
-4 -6 7 -16 23 -23 27 -11 32 -10 50 11 11 13 18 29 15 36 -2 7 2 10 9 7 7 -3
21 5 32 17 10 13 13 19 6 15 -10 -6 -12 0 -9 21 2 17 11 29 22 32 17 3 18 2 2
-14 -20 -20 -21 -26 -5 -22 18 3 37 30 30 42 -3 5 1 5 9 -1 11 -9 24 -5 61 21
27 17 45 35 40 40 -4 5 -1 5 5 1 7 -4 37 5 68 19 31 14 61 25 68 25 8 0 7 4
-3 11 -13 9 -12 10 3 5 10 -3 48 2 85 11 47 12 112 17 222 17 85 1 139 4 120
7 l-35 6 35 3 c19 2 41 3 47 3 7 -1 11 3 8 7 -6 9 45 24 53 16 3 -3 -6 -10
-19 -16 -23 -10 -22 -10 5 -5 26 5 27 4 13 -10 -9 -8 -26 -15 -39 -16 -13 0
-2 -7 27 -15 28 -8 58 -12 68 -10 23 6 49 -3 42 -14 -3 -4 7 -11 20 -14 42
-11 147 -61 221 -107 204 -124 387 -309 547 -555 71 -109 227 -386 227 -404 0
-8 17 -9 58 -4 110 14 480 8 602 -10 276 -42 454 -101 474 -158 5 -14 6 -37 2
-51 -9 -38 -78 -119 -172 -203 l-81 -72 49 -37 c71 -55 86 -95 52 -143 -32
-47 -260 -181 -374 -220 l-31 -11 65 -78 c190 -229 454 -413 676 -473 229 -61
473 -33 630 72 64 42 156 149 220 254 l33 54 -31 68 c-42 91 -78 220 -96 345
-22 146 -20 383 3 520 19 110 37 147 71 147 46 0 231 -161 317 -274 91 -122
139 -256 131 -368 -4 -52 -3 -56 11 -44 28 24 114 63 171 76 150 36 405 -3
572 -86 54 -28 62 -37 54 -68 -6 -26 -144 -164 -219 -221 -195 -148 -440 -249
-654 -270 l-70 -7 -37 -97 c-69 -174 -222 -435 -341 -577 -285 -341 -662 -582
-1078 -689 -338 -86 -638 -95 -992 -30 -411 77 -795 280 -1102 583 -143 142
-311 362 -382 499 -12 24 -24 43 -27 43 -3 0 -40 -36 -82 -79 -61 -63 -85 -81
-115 -86 -81 -16 -109 23 -128 176 -19 160 4 413 57 607 20 75 23 99 15 130
-23 88 -81 501 -81 580 0 5 -18 18 -39 31 -56 31 -155 131 -202 203 -74 115
-110 283 -90 424 7 47 14 91 17 98 3 8 -31 57 -78 112 -46 55 -93 111 -104
126 l-21 27 -12 -22 c-6 -12 -9 -14 -7 -5 4 12 1 15 -10 11 -7 -3 -14 -11 -14
-19 0 -8 -9 -14 -20 -14 -11 0 -20 7 -20 15 0 11 -6 10 -25 -7 -13 -11 -22
-26 -18 -31 4 -6 -2 -8 -15 -5 -12 3 -21 3 -20 -1 2 -19 -4 -31 -16 -31 -8 0
-16 -7 -20 -15 -3 -8 -11 -15 -17 -15 -8 0 -9 4 0 13 8 11 5 17 -14 27 -19 10
-23 18 -18 38 4 19 3 23 -7 17 -10 -6 -11 -2 -6 19 6 26 5 27 -34 30 -19 2
-50 -32 -50 -55 0 -20 -16 -34 -24 -21 -6 10 -42 9 -52 -1 -7 -6 10 -11 28 -8
5 0 8 -6 8 -15 0 -8 -4 -12 -10 -9 -5 3 -10 2 -10 -4 0 -5 8 -11 18 -13 14 -3
13 -5 -5 -10 -16 -4 -23 -2 -23 9 0 29 -20 1 -21 -30 -1 -18 -3 -24 -6 -15 -8
30 -33 8 -33 -29 0 -29 -3 -33 -14 -24 -11 9 -14 2 -19 -40 -4 -28 -11 -57
-17 -64 -13 -15 -91 -8 -102 9 -5 6 -8 1 -8 -11 0 -15 -6 -23 -17 -23 -13 0
-9 -6 12 -20 27 -18 28 -20 8 -20 -12 0 -25 -5 -28 -10 -4 -6 -3 -10 2 -9 4 1
24 -6 43 -15 30 -15 31 -16 8 -11 -21 4 -28 1 -28 -10 0 -18 -16 -20 -23 -2
-4 9 -8 8 -16 -3 -7 -10 -11 -11 -11 -2 0 6 -7 12 -15 12 -11 0 -12 -5 -6 -22
5 -13 14 -22 20 -21 6 2 8 -3 5 -11 -3 -7 2 -16 10 -19 9 -4 16 -2 16 3 0 6 5
10 10 10 25 0 -2 -98 -27 -101 -16 -2 -40 -2 -53 0 -6 0 -8 11 -5 24 8 32 -17
92 -38 94 -11 0 -16 -4 -13 -12 3 -8 -2 -12 -12 -10 -24 4 -42 -14 -41 -39 1
-19 2 -19 10 4 10 29 5 -55 -7 -102 -6 -25 -4 -28 21 -28 27 0 28 0 10 -20
-10 -11 -15 -23 -12 -27 4 -3 2 -12 -4 -19 -7 -9 -7 -19 1 -34 6 -12 9 -24 7
-27 -3 -2 -8 5 -12 16 -10 33 -22 24 -22 -16 1 -42 -12 -49 -95 -48 -27 0 -48
-3 -48 -7 0 -5 -10 -9 -22 -9 -18 -1 -17 -3 6 -8 36 -7 39 -22 9 -36 -13 -5
-23 -18 -23 -27 0 -22 -5 -22 -41 -1 -24 15 -31 15 -38 5 -5 -8 -12 -13 -17
-12 -5 1 -15 -17 -23 -40 -7 -22 -16 -39 -19 -36 -3 3 -11 1 -19 -5 -10 -9
-13 -8 -13 0 0 7 -4 10 -9 7 -5 -3 -12 11 -16 32 l-7 37 -24 -28 c-14 -16 -31
-27 -38 -24 -10 4 -12 0 -9 -14 3 -10 0 -19 -6 -19 -19 0 -12 -17 10 -23 11
-3 19 -11 18 -19 -1 -7 2 -21 6 -32 5 -11 4 -26 -3 -36 -7 -12 -7 -21 0 -28
12 -12 1 -35 -13 -27 -5 4 -10 0 -10 -7 -1 -7 -2 -20 -3 -28 0 -8 -7 -14 -13
-12 -7 1 -13 -2 -13 -8 0 -6 -6 -9 -12 -8 -7 2 -12 -3 -10 -11 2 -7 -3 -21
-10 -30 -22 -27 -38 -60 -38 -76 0 -9 -5 -13 -10 -10 -6 4 -7 12 -3 18 4 7 1
7 -10 -1 -14 -12 -16 -11 -14 7 1 20 9 25 35 22 6 -1 12 3 12 9 0 5 -7 10 -16
10 -12 0 -15 7 -12 25 3 14 1 28 -5 32 -6 3 -7 1 -3 -6 4 -6 1 -14 -8 -17 -20
-8 -20 27 -20 -1424 0 -1134 1 -1281 17 -1420 20 -183 37 -275 77 -425 43
-164 113 -337 144 -357 6 -4 7 -8 3 -8 -5 0 4 -24 21 -53 272 -481 775 -825
1327 -906 241 -35 289 -36 2710 -36 2234 0 2384 1 2448 17 38 10 80 18 94 18
36 0 211 43 322 80 477 156 883 531 1085 1004 111 259 159 512 176 936 12 295
12 3880 0 4215 -18 514 -60 746 -187 1037 -174 401 -528 749 -931 917 -201 83
-339 121 -562 152 -186 26 -583 37 -650 19 -64 -19 -82 -19 -99 -2 -11 11 -32
13 -87 10 -40 -3 -80 -1 -89 5 -10 5 -15 6 -12 1z m-1398 -24 c-3 -5 -14 -10
-23 -9 -14 0 -13 2 3 9 27 11 27 11 20 0z m517 -13 c-35 -5 -80 -5 -100 -1
l-37 8 45 5 c25 4 70 4 100 2 l55 -5 -63 -9z m978 7 c0 -2 -7 -4 -15 -4 -8 0
-15 4 -15 10 0 5 7 7 15 4 8 -4 15 -8 15 -10z m-1713 0 c-3 -3 -12 -4 -19 -1
-8 3 -5 6 6 6 11 1 17 -2 13 -5z m98 -4 c-27 -4 -57 -3 -65 1 -9 5 11 8 50 7
l65 -1 -50 -7z m762 4 c-3 -3 -12 -4 -19 -1 -8 3 -5 6 6 6 11 1 17 -2 13 -5z
m681 -1 c-10 -2 -26 -2 -35 0 -10 3 -2 5 17 5 19 0 27 -2 18 -5z m125 0 c-7
-2 -21 -2 -30 0 -10 3 -4 5 12 5 17 0 24 -2 18 -5z m120 0 c-7 -2 -19 -2 -25
0 -7 3 -2 5 12 5 14 0 19 -2 13 -5z m-1710 -30 c-7 -2 -19 -2 -25 0 -7 3 -2 5
12 5 14 0 19 -2 13 -5z m-268 -121 c-3 -3 -11 0 -18 7 -9 10 -8 11 6 5 10 -3
15 -9 12 -12z m-984 -875 c-10 -9 -11 -8 -5 6 3 10 9 15 12 12 3 -3 0 -11 -7
-18z m-154 -179 c-3 -8 -6 -5 -6 6 -1 11 2 17 5 13 3 -3 4 -12 1 -19z m-757
-478 c0 -5 -5 -10 -11 -10 -5 0 -7 5 -4 10 3 6 8 10 11 10 2 0 4 -4 4 -10z
m-73 -105 c-4 -8 -13 -15 -22 -15 -13 0 -12 3 3 18 19 21 27 20 19 -3z m-7
-186 c0 -5 -7 -9 -15 -9 -8 0 -15 7 -15 15 0 9 6 12 15 9 8 -4 15 -10 15 -15z
m-250 -29 c0 -11 -4 -20 -10 -20 -5 0 -10 9 -10 20 0 11 5 20 10 20 6 0 10 -9
10 -20z m1060 -35 c10 -12 10 -15 -4 -15 -9 0 -16 7 -16 15 0 8 2 15 4 15 2 0
9 -7 16 -15z m-995 -89 c7 3 16 1 19 -4 3 -5 -6 -9 -19 -9 -19 0 -25 4 -24 21
1 16 2 17 6 4 2 -9 10 -15 18 -12z m675 -10 c0 -2 -19 -3 -42 -3 -38 -1 -40 0
-13 6 26 6 55 4 55 -3z m-766 -294 c3 -5 -1 -9 -9 -9 -8 0 -12 4 -9 9 3 4 7 8
9 8 2 0 6 -4 9 -8z m-1258 -954 c-1 -16 -7 -22 -20 -20 -11 2 -15 -1 -11 -7 3
-6 3 -20 0 -31 -9 -28 -75 -29 -75 -2 0 26 11 34 27 21 10 -9 13 -8 13 1 0 8
3 11 6 7 3 -3 17 7 31 24 30 35 31 35 29 7z m-279 -70 c-3 -8 -6 -5 -6 6 -1
11 2 17 5 13 3 -3 4 -12 1 -19z m183 -38 c0 -5 -4 -10 -10 -10 -5 0 -10 5 -10
10 0 6 5 10 10 10 6 0 10 -4 10 -10z m-383 -1342 c-3 -8 -6 -5 -6 6 -1 11 2
17 5 13 3 -3 4 -12 1 -19z"/>
<path d="M4328 9803 c18 -2 45 -2 60 0 15 2 0 4 -33 4 -33 0 -45 -2 -27 -4z"/>
<path d="M5165 9710 c-3 -5 -1 -10 4 -10 6 0 11 5 11 10 0 6 -2 10 -4 10 -3 0
-8 -4 -11 -10z"/>
<path d="M4910 9488 c0 -4 7 -8 15 -8 8 0 15 4 15 8 0 5 -7 9 -15 9 -8 0 -15
-4 -15 -9z"/>
<path d="M4887 9410 c8 -8 9 -19 3 -29 -7 -13 -3 -17 16 -19 21 -2 23 1 15 16
-6 10 -18 25 -28 32 -15 12 -16 12 -6 0z"/>
<path d="M4711 9254 c0 -11 3 -14 6 -6 3 7 2 16 -1 19 -3 4 -6 -2 -5 -13z"/>
<path d="M1686 8923 c-6 -14 -5 -15 5 -6 7 7 10 15 7 18 -3 3 -9 -2 -12 -12z"/>
<path d="M4246 8915 c-3 -8 -1 -15 5 -15 6 0 7 -4 4 -10 -3 -5 -15 -10 -26
-10 -10 0 -19 -4 -19 -10 0 -5 8 -10 18 -10 9 0 28 -3 41 -7 17 -4 22 -3 17 5
-4 7 -2 12 3 12 16 0 13 29 -3 46 -19 18 -32 18 -40 -1z"/>
<path d="M4140 8760 c-9 -6 -10 -10 -3 -10 6 0 15 5 18 10 8 12 4 12 -15 0z"/>
<path d="M3981 8734 c0 -11 3 -14 6 -6 3 7 2 16 -1 19 -3 4 -6 -2 -5 -13z"/>
<path d="M4090 8726 c0 -8 -3 -21 -6 -30 -4 -11 -1 -16 10 -16 9 0 16 4 16 10
0 5 6 7 14 4 8 -3 19 3 25 14 8 16 7 21 -5 26 -27 11 -54 6 -54 -8z m50 -12
c0 -8 -5 -12 -10 -9 -6 4 -8 11 -5 16 9 14 15 11 15 -7z"/>
<path d="M1556 8605 c24 -39 24 -40 24 -28 0 6 -9 21 -21 34 l-20 24 17 -30z"/>
<path d="M1530 8601 c0 -6 4 -13 10 -16 6 -3 7 1 4 9 -7 18 -14 21 -14 7z"/>
<path d="M3930 8533 c0 -7 5 -13 10 -13 6 0 10 5 10 10 0 6 4 10 8 10 5 0 7
-13 6 -30 -1 -16 3 -30 8 -30 6 0 8 9 5 20 -3 11 -1 23 4 26 19 12 8 24 -21
22 -17 -1 -30 -8 -30 -15z"/>
<path d="M3930 8494 c0 -8 5 -12 10 -9 6 4 8 11 5 16 -9 14 -15 11 -15 -7z"/>
<path d="M3803 8422 c-17 -11 -20 -36 -7 -49 18 -19 44 -16 44 5 -1 24 -24 52
-37 44z"/>
<path d="M3645 8291 c-3 -6 -14 -8 -25 -6 -17 3 -18 1 -10 -15 13 -23 30 -35
30 -20 0 6 3 9 8 7 4 -3 8 6 8 19 2 26 -1 30 -11 15z"/>
<path d="M3626 8185 c4 -8 8 -15 10 -15 2 0 4 7 4 15 0 8 -4 15 -10 15 -5 0
-7 -7 -4 -15z"/>
<path d="M3554 8162 c4 -7 2 -12 -3 -12 -6 0 -11 -4 -11 -10 0 -15 17 -12 23
5 4 8 1 17 -5 21 -7 4 -8 3 -4 -4z"/>
<path d="M3633 8147 c2 -6 13 -11 23 -10 12 2 9 -2 -8 -10 -19 -9 -24 -17 -19
-26 7 -11 11 -10 20 5 6 11 11 15 11 9 0 -13 20 16 20 30 0 6 -12 12 -26 13
-17 1 -24 -2 -21 -11z"/>
<path d="M1413 8045 c0 -27 2 -38 4 -22 2 15 2 37 0 50 -2 12 -4 0 -4 -28z"/>
<path d="M1403 7910 c0 -41 2 -58 4 -37 2 20 2 54 0 75 -2 20 -4 3 -4 -38z"/>
<path d="M3231 7921 c-8 -5 -9 -11 -3 -15 5 -3 15 1 22 9 14 16 3 20 -19 6z"/>
<path d="M3271 7904 c0 -11 3 -14 6 -6 3 7 2 16 -1 19 -3 4 -6 -2 -5 -13z"/>
<path d="M3337 7889 c7 -7 15 -10 18 -7 3 3 -2 9 -12 12 -14 6 -15 5 -6 -5z"/>
<path d="M1394 7650 c0 -80 2 -112 3 -72 2 39 2 105 0 145 -1 39 -3 7 -3 -73z"/>
<path d="M2807 7514 c6 -16 45 -29 65 -21 7 3 1 6 -14 6 -16 1 -28 5 -28 10 0
5 -7 11 -14 14 -10 4 -13 1 -9 -9z"/>
<path d="M2787 7491 c3 -12 11 -17 19 -14 11 4 11 7 -1 19 -19 19 -24 18 -18
-5z"/>
<path d="M1393 7460 c0 -25 2 -35 4 -22 2 12 2 32 0 45 -2 12 -4 2 -4 -23z"/>
<path d="M2561 7474 c0 -11 3 -14 6 -6 3 7 2 16 -1 19 -3 4 -6 -2 -5 -13z"/>
<path d="M2720 7470 c0 -5 5 -10 11 -10 5 0 7 5 4 10 -3 6 -8 10 -11 10 -2 0
-4 -4 -4 -10z"/>
<path d="M2825 7470 c-3 -5 0 -12 5 -15 8 -5 5 -14 -7 -28 -14 -17 -12 -17 10
3 20 17 38 24 65 22 28 -1 32 1 17 7 -36 14 -84 21 -90 11z"/>
<path d="M3013 7437 c5 -12 1 -17 -13 -17 -25 0 -26 -16 -3 -24 10 -4 14 -4
10 0 -4 5 1 13 12 18 17 10 18 12 3 26 -14 13 -15 12 -9 -3z"/>
<path d="M2520 7430 c0 -13 11 -13 30 0 12 8 11 10 -7 10 -13 0 -23 -4 -23
-10z"/>
<path d="M2670 7430 c0 -5 3 -9 8 -8 18 5 49 -26 44 -44 -4 -15 -7 -17 -13 -6
-6 10 -11 10 -21 0 -8 -8 -8 -12 -1 -12 6 0 10 -6 9 -12 -3 -29 18 -20 29 12
14 41 8 73 -11 66 -8 -3 -14 -1 -14 4 0 6 -7 10 -15 10 -8 0 -15 -4 -15 -10z"/>
<path d="M2978 7433 c7 -3 16 -2 19 1 4 3 -2 6 -13 5 -11 0 -14 -3 -6 -6z"/>
<path d="M2643 7413 c-7 -3 -13 -9 -13 -15 0 -7 5 -6 14 1 10 9 15 8 20 -4 5
-15 26 -21 26 -7 0 12 -34 29 -47 25z"/>
<path d="M2542 7370 c-7 -11 -8 -20 -3 -20 9 0 24 30 18 36 -1 2 -8 -6 -15
-16z"/>
<path d="M2400 7370 c0 -5 5 -10 10 -10 6 0 10 5 10 10 0 6 -4 10 -10 10 -5 0
-10 -4 -10 -10z"/>
<path d="M2380 7330 c0 -5 5 -10 10 -10 6 0 10 5 10 10 0 6 -4 10 -10 10 -5 0
-10 -4 -10 -10z"/>
<path d="M2440 7310 c0 -5 5 -10 11 -10 5 0 7 5 4 10 -3 6 -8 10 -11 10 -2 0
-4 -4 -4 -10z"/>
<path d="M1392 7280 c0 -14 2 -19 5 -12 2 6 2 18 0 25 -3 6 -5 1 -5 -13z"/>
<path d="M3750 7058 c-78 -40 -111 -134 -74 -210 21 -45 54 -67 120 -81 53
-11 59 -10 102 14 115 64 110 217 -8 277 -24 12 -56 22 -70 22 -14 0 -46 -10
-70 -22z m28 -210 c2 -19 -2 -28 -18 -33 -37 -12 -64 27 -38 53 21 21 53 10
56 -20z"/>
<path d="M2020 6949 c0 -5 5 -7 10 -4 6 3 10 8 10 11 0 2 -4 4 -10 4 -5 0 -10
-5 -10 -11z"/>
<path d="M2083 6867 c4 -10 7 -28 8 -40 l0 -22 11 22 c8 17 7 26 -8 40 -17 17
-18 17 -11 0z"/>
<path d="M1382 6785 c0 -16 2 -22 5 -12 2 9 2 23 0 30 -3 6 -5 -1 -5 -18z"/>
<path d="M3146 6754 c-29 -29 -12 -64 31 -64 37 0 50 51 19 72 -17 12 -33 9
-50 -8z"/>
<path d="M1389 6658 c-7 -25 -7 -52 1 -70 8 -22 9 -22 9 5 1 20 5 26 14 21 9
-5 9 -4 0 6 -6 7 -9 19 -6 26 3 8 0 14 -6 14 -6 0 -11 -1 -12 -2z"/>
<path d="M1410 6520 c0 -11 2 -20 4 -20 2 0 6 9 9 20 3 11 1 20 -4 20 -5 0 -9
-9 -9 -20z"/>
<path d="M1413 6440 c0 -25 2 -35 4 -22 2 12 2 32 0 45 -2 12 -4 2 -4 -23z"/>
<path d="M1392 6295 c0 -33 3 -50 5 -38 3 13 10 20 18 17 22 -9 28 16 7 34
-10 9 -21 24 -25 32 -3 8 -5 -12 -5 -45z"/>
<path d="M1400 6206 c0 -13 -3 -31 -6 -39 -3 -8 2 -17 10 -20 13 -5 16 2 16
38 0 25 -4 45 -10 45 -5 0 -10 -11 -10 -24z"/>
</g>
</svg>
