<svg width="151" height="41" viewBox="0 0 151 41" fill="none" xmlns="http://www.w3.org/2000/svg">
<path d="M27.4152 36.6122C28.0185 35.9844 29.3077 34.9884 30.3502 34.345C30.4799 34.2655 30.6494 34.305 30.7297 34.4341C30.8097 34.5631 30.7698 34.7325 30.6404 34.8125C29.6311 35.4354 28.3894 36.3928 27.813 36.9923C26.254 38.6151 26.1507 39.2126 26.1786 39.3942C26.1845 39.4316 26.1982 39.4618 26.2361 39.4898C26.2541 39.4999 26.2752 39.5148 26.2909 39.5213C26.8654 39.7553 27.54 39.6174 28.2945 39.1114C30.3517 37.7321 32.1989 34.1915 32.1989 33.1046C32.1989 32.9016 32.1187 32.7805 31.9305 32.6993C30.9814 32.2906 28.2965 33.2453 27.3268 34.1545C27.2158 34.2582 27.0416 34.2528 26.9371 34.1425C26.8329 34.0317 26.8382 33.8578 26.9491 33.7538C27.1918 33.5263 27.5461 33.2894 27.9584 33.0668L27.2005 30.6558C26.2266 32.6377 24.6354 34.2404 22.623 35.2826C23.5393 36.5105 24.8561 38.1744 25.6787 39.0108C25.8459 38.436 26.411 37.6572 27.4152 36.6122Z" fill="#97F0E5"/>
<path d="M19.5408 6.17514C19.3869 6.18771 19.2543 6.07961 19.2393 5.92871C18.9997 3.50979 17.9338 1.83394 16.0714 0.947386C14.834 0.371686 13.4034 0.423286 12.1486 1.09109C10.6478 1.88954 9.58184 3.45879 9.29691 5.28884C9.14314 6.27714 9.00944 7.41389 8.85469 8.73021C8.62874 10.6521 8.34904 13.0288 7.87251 16.1315C9.22054 16.0145 11.5575 16.1456 13.215 17.2881C13.3402 17.3743 13.3716 17.5455 13.285 17.6704C13.1984 17.7952 13.0265 17.8263 12.9016 17.7402C11.2352 16.5916 8.79019 16.5532 7.60821 16.7121C7.05221 16.7868 4.15864 17.2947 1.79014 19.9697C0.609738 21.2983 0.246663 22.9814 0.818563 24.4717C1.16636 25.3776 1.82549 26.0132 2.49771 26.0903C3.05616 26.1562 3.58844 25.84 4.03606 25.1805C4.08904 25.1021 4.19791 25.0448 4.29199 25.0458C4.50154 25.0521 4.57946 25.2154 4.75024 25.5723C4.94524 25.9805 5.30844 26.7401 5.72376 26.8784C5.83496 26.9155 5.94359 26.9033 6.06606 26.8396C6.27844 26.7271 6.34804 26.2918 6.42854 25.7877C6.56189 24.9526 6.74464 23.8087 7.77311 22.9726C8.17964 22.6542 8.70064 22.571 9.39256 22.488C9.54229 22.468 9.68091 22.577 9.69914 22.7278C9.71724 22.8786 9.60946 23.0155 9.45839 23.0336C8.85614 23.1058 8.40754 23.1746 8.11761 23.4017C7.25589 24.1022 7.09894 25.0848 6.97281 25.8743C6.86919 26.5234 6.77954 27.084 6.32286 27.3261C6.28724 27.3446 6.25161 27.3603 6.21599 27.3747C6.03219 28.666 5.93274 29.8503 5.85299 30.8088C5.75206 32.0217 5.70606 32.5229 5.58091 32.7413C4.63759 34.3431 4.82281 35.3651 6.21876 36.2721C7.09981 36.8581 8.58764 38.0691 9.67384 38.9533C9.90394 39.1404 10.1161 39.3132 10.3003 39.4618C10.7188 39.7997 11.2371 39.9505 11.9809 39.9505H15.7892C15.7954 39.9437 15.8926 39.8529 15.9487 39.6001C16.0887 38.9706 15.8688 37.8875 14.8324 36.7359C14.3217 36.172 13.6278 35.7031 13.1687 35.393C13.0208 35.2931 12.9 35.2111 12.819 35.1492C12.8186 35.1489 12.8181 35.1485 12.8177 35.1482C12.8176 35.1482 12.8178 35.1483 12.8177 35.1482C12.817 35.1477 12.8158 35.1468 12.8151 35.1463C12.8143 35.1456 12.814 35.1447 12.8131 35.144C12.7958 35.1304 12.7838 35.1124 12.7704 35.0954C12.7622 35.0849 12.7508 35.0765 12.7443 35.0652C12.7438 35.0643 12.7433 35.0635 12.7428 35.0627C12.7345 35.048 12.7322 35.0309 12.7268 35.0149C12.7212 34.9984 12.7126 34.9828 12.7103 34.9656C12.7102 34.9647 12.7099 34.9639 12.7098 34.963C12.7086 34.9532 12.7119 34.9429 12.7117 34.9329C12.7116 34.9263 12.7126 34.9199 12.7129 34.9134C12.7139 34.8956 12.7118 34.878 12.7162 34.8606C12.7167 34.8589 12.7174 34.8574 12.7178 34.8557C12.7181 34.8548 12.7178 34.8539 12.7181 34.853L13.3695 32.5795C13.4113 32.4336 13.5633 32.3485 13.7102 32.3907C13.8565 32.4324 13.9413 32.5844 13.8994 32.7303L13.3025 34.8138C14.5028 35.6091 17.2179 36.3704 19.9329 35.7109C23.6611 34.7927 26.4456 32.1403 27.381 28.6156C27.9536 26.4586 27.7567 24.2501 26.8764 22.27C26.8701 22.2589 26.862 22.2494 26.8572 22.2372C26.8545 22.2305 26.8556 22.2236 26.8535 22.2169C26.3166 21.0281 25.5324 19.9229 24.5184 18.9627C23.6665 18.1373 22.9028 17.5937 22.8953 17.5883C22.7712 17.5003 22.7421 17.3288 22.8302 17.2051C22.918 17.081 23.0903 17.0522 23.2143 17.1401C23.2466 17.163 24.0183 17.7119 24.9003 18.5662C25.906 19.5185 26.6924 20.6089 27.2536 21.7796C28.3353 21.325 29.2735 20.7368 30.1108 19.9833C31.6116 18.6598 32.2665 16.9388 31.865 15.3778C31.615 14.4061 30.9727 13.6701 30.2289 13.5029C29.5938 13.3597 28.9359 13.6489 28.3775 14.3171C28.2995 14.4052 28.1955 14.4434 28.0883 14.4244C27.8782 14.3874 27.8028 14.1981 27.6377 13.7833C27.4529 13.3194 27.1437 12.5428 26.7351 12.3758C26.6216 12.3294 26.5068 12.3354 26.3727 12.3939C26.212 12.4565 26.202 12.7352 26.198 13.1851C26.19 14.097 26.1777 15.4751 24.3239 16.3389C23.9124 16.5583 23.6378 16.6646 22.9545 16.6646C22.8023 16.6646 22.679 16.5415 22.679 16.3898C22.679 16.2655 22.7632 16.1646 22.8767 16.1306C22.7428 15.0659 22.3783 12.8419 22.3783 12.8419C22.3783 12.8419 22.9045 11.9925 22.8794 11.2179C22.8293 9.44401 22.228 7.19539 20.1485 6.14604C20.0381 6.06346 19.9121 5.89914 19.7755 5.77506C19.7792 5.80856 19.7845 5.84076 19.7879 5.87449C19.8028 6.02564 19.6922 6.16026 19.5408 6.17514Z" fill="#97F0E5"/>
<path d="M32.1495 32.195C31.3278 31.8408 29.7303 32.2336 28.4581 32.8184L27.5368 29.8876C27.6812 29.5204 27.8103 29.1446 27.9134 28.7562C28.4966 26.5587 28.3213 24.313 27.4774 22.2819C28.6124 21.8035 29.5982 21.1847 30.4775 20.3934C32.1344 18.9321 32.8525 17.006 32.3984 15.2412C32.0928 14.0537 31.3077 13.1822 30.3495 12.9667C29.5965 12.7968 28.8409 13.0581 28.197 13.6991C28.1808 13.6592 28.1647 13.6186 28.1495 13.5805C27.9183 13.0001 27.5689 12.1229 26.9435 11.8672C26.6898 11.7633 26.4229 11.7712 26.1613 11.8862C25.6561 12.0822 25.6512 12.6404 25.6463 13.1802C25.6387 14.0462 25.6292 15.1238 24.077 15.8474C23.7283 16.033 23.549 16.115 22.954 16.115C22.9264 16.115 22.9013 16.1231 22.8762 16.1306C22.7627 16.1646 22.6785 16.2656 22.6785 16.3898C22.6785 16.5416 22.8018 16.6647 22.954 16.6647C23.6373 16.6647 23.9119 16.5583 24.3234 16.3389C26.1772 15.4751 26.1895 14.097 26.1975 13.1851C26.2015 12.7352 26.2115 12.4566 26.3722 12.394C26.5063 12.3354 26.6211 12.3294 26.7346 12.3758C27.1432 12.5428 27.4524 13.3194 27.6372 13.7834C27.8023 14.1981 27.8777 14.3874 28.0878 14.4245C28.195 14.4434 28.299 14.4052 28.377 14.3171C28.9354 13.6489 29.5933 13.3597 30.2284 13.5029C30.9722 13.6702 31.6145 14.4062 31.8645 15.3779C32.266 16.9388 31.6111 18.6598 30.1103 19.9833C29.273 20.7368 28.3348 21.325 27.2531 21.7797C26.6919 20.6089 25.9055 19.5186 24.8998 18.5662C24.0178 17.7119 23.2461 17.163 23.2138 17.1401C23.0898 17.0523 22.9175 17.081 22.8297 17.2051C22.7416 17.3288 22.7707 17.5003 22.8948 17.5883C22.9023 17.5937 23.666 18.1373 24.5179 18.9627C25.5319 19.9229 26.3161 21.0281 26.853 22.2169C26.8551 22.2237 26.854 22.2305 26.8567 22.2372C26.8615 22.2494 26.8696 22.2589 26.8759 22.27C27.7562 24.2501 27.9531 26.4586 27.3805 28.6156C26.4451 32.1403 23.6606 34.7928 19.9324 35.7109C17.2174 36.3704 14.5023 35.6092 13.302 34.8138L13.8989 32.7303C13.9408 32.5844 13.856 32.4324 13.7097 32.3907C13.5628 32.3485 13.4108 32.4336 13.369 32.5795L12.7176 34.8531C12.7173 34.854 12.7176 34.8548 12.7173 34.8558C12.7169 34.8574 12.7162 34.8589 12.7157 34.8606C12.7113 34.878 12.7134 34.8957 12.7124 34.9134C12.7121 34.9199 12.7111 34.9264 12.7112 34.9329C12.7114 34.9429 12.7081 34.9532 12.7093 34.9631C12.7094 34.9639 12.7097 34.9647 12.7098 34.9656C12.7121 34.9828 12.7207 34.9984 12.7263 35.0149C12.7317 35.0309 12.734 35.048 12.7423 35.0627C12.7428 35.0636 12.7433 35.0643 12.7438 35.0652C12.7503 35.0766 12.7617 35.085 12.7699 35.0954C12.7833 35.1124 12.7953 35.1305 12.8126 35.144C12.8134 35.1447 12.8138 35.1457 12.8146 35.1463C12.8153 35.1469 12.8163 35.1475 12.817 35.1481C12.817 35.1481 12.8171 35.1482 12.817 35.1481C12.8175 35.1484 12.8181 35.1489 12.8185 35.1492C12.8995 35.2111 13.0203 35.2932 13.1682 35.393C13.6273 35.7031 14.3212 36.1721 14.8319 36.7359C15.8683 37.8876 16.0882 38.9706 15.9482 39.6001C15.8921 39.8529 15.7949 39.9437 15.7887 39.9505H11.9804C11.2366 39.9505 10.7183 39.7997 10.2998 39.4618C10.1156 39.3132 9.90345 39.1405 9.67333 38.9533C8.58713 38.0691 7.0993 36.8582 6.21825 36.2721C4.8223 35.3652 4.63708 34.3431 5.5804 32.7413C5.70555 32.5229 5.75155 32.0218 5.85248 30.8089C5.93223 29.8504 6.0317 28.666 6.21548 27.3747C6.2511 27.3604 6.28673 27.3446 6.32235 27.3261C6.77903 27.0841 6.8687 26.5234 6.9723 25.8744C7.09843 25.0848 7.25538 24.1023 8.1171 23.4018C8.40703 23.1746 8.85563 23.1058 9.45788 23.0336C9.60895 23.0155 9.71673 22.8787 9.69863 22.7279C9.6804 22.5771 9.5418 22.468 9.39205 22.488C8.70013 22.571 8.1791 22.6542 7.7726 22.9726C6.74415 23.8087 6.56138 24.9526 6.42803 25.7878C6.34753 26.2918 6.27793 26.7271 6.06555 26.8396C5.9431 26.9033 5.83445 26.9155 5.72325 26.8784C5.30793 26.7401 4.94473 25.9805 4.74973 25.5723C4.57895 25.2154 4.50103 25.0521 4.29148 25.0458C4.1974 25.0448 4.08853 25.1022 4.03555 25.1805C3.58793 25.84 3.05565 26.1562 2.4972 26.0903C1.82498 26.0132 1.16585 25.3776 0.818054 24.4717C0.246154 22.9814 0.609229 21.2983 1.78963 19.9697C4.15813 17.2947 7.0517 16.7868 7.6077 16.7122C8.7897 16.5532 11.2347 16.5916 12.9011 17.7402C13.026 17.8263 13.1979 17.7952 13.2845 17.6704C13.3711 17.5455 13.3397 17.3744 13.2145 17.2881C11.557 16.1456 9.22003 16.0146 7.872 16.1315C8.34853 13.0288 8.62823 10.6521 8.85418 8.73023C9.00893 7.41391 9.14265 6.27713 9.2964 5.28886C9.58133 3.45881 10.6473 1.88956 12.1481 1.09111C13.4029 0.423307 14.8335 0.371707 16.0709 0.947407C17.9333 1.83396 18.9992 3.50981 19.2388 5.92873C19.2538 6.07963 19.3864 6.18773 19.5403 6.17516C19.6917 6.16028 19.8023 6.02571 19.7874 5.87456C19.784 5.84083 19.7787 5.80861 19.775 5.77513C19.4976 3.24068 18.3016 1.40013 16.3061 0.450382C14.9077 -0.200468 13.2978 -0.143618 11.8887 0.606057C10.2358 1.48553 9.0631 3.20456 8.75178 5.20443C8.5964 6.20296 8.4622 7.34448 8.30673 8.66618C8.0776 10.6157 7.7929 13.0341 7.30328 16.2036C6.36963 16.3686 3.63858 17.051 1.37678 19.6055C0.0577786 21.0902 -0.343471 22.9829 0.303304 24.6681C0.730129 25.7802 1.54658 26.5344 2.4341 26.6364C3.09165 26.712 3.72093 26.4229 4.24978 25.8039C4.2505 25.8056 4.25138 25.8073 4.2521 25.809C4.4986 26.3246 4.9111 27.1873 5.54848 27.3998C5.58283 27.4113 5.61738 27.4181 5.65185 27.4256C5.47678 28.6893 5.37683 29.8783 5.30318 30.7633C5.2392 31.5318 5.173 32.3265 5.1034 32.4658C4.41993 33.6265 3.76068 35.3315 5.91485 36.7311C6.77143 37.3008 8.24728 38.502 9.32478 39.3791C9.5555 39.567 9.76823 39.74 9.95295 39.8891C10.4693 40.306 11.1135 40.5 11.9804 40.5H15.7886C16.0335 40.5 16.2522 40.3256 16.3883 40.0211C16.6523 39.4311 16.7081 37.9979 15.2416 36.3683C15.1739 36.2935 15.1034 36.2207 15.0314 36.1496C15.8564 36.3747 16.7925 36.512 17.7669 36.512C18.5221 36.512 19.2994 36.4302 20.0637 36.2448C20.7852 36.0671 21.4724 35.8265 22.1209 35.5308C22.8381 36.4956 25.084 39.4595 25.9834 39.98C25.9887 39.983 25.9926 39.9871 25.9979 39.9901C26.0025 39.9926 26.0075 39.9934 26.0122 39.9957C26.0363 40.0086 26.0602 40.0211 26.0821 40.0301C26.3336 40.1323 26.5949 40.1833 26.8657 40.1833C27.4096 40.1833 27.9907 39.9776 28.6021 39.5677C30.7004 38.1606 32.75 34.4568 32.75 33.1046C32.75 32.6849 32.5369 32.3619 32.1495 32.195ZM28.2946 39.1114C27.54 39.6175 26.8655 39.7553 26.291 39.5213C26.2753 39.5149 26.2541 39.4999 26.2361 39.4898C26.1983 39.4618 26.1845 39.4317 26.1787 39.3942C26.1508 39.2127 26.254 38.6151 27.8131 36.9923C28.3895 36.3929 29.6312 35.4354 30.6404 34.8125C30.7699 34.7325 30.8097 34.5632 30.7297 34.4341C30.6495 34.305 30.4799 34.2655 30.3503 34.345C29.3077 34.9884 28.0186 35.9844 27.4152 36.6122C26.4111 37.6573 25.846 38.436 25.6788 39.0109C24.8562 38.1745 23.5394 36.5106 22.6231 35.2827C24.6355 34.2405 26.2267 32.6377 27.2006 30.6558L27.9585 33.0669C27.5461 33.2895 27.1919 33.5264 26.9492 33.7539C26.8383 33.8578 26.8329 34.0318 26.9372 34.1426C27.0416 34.2528 27.2158 34.2582 27.3269 34.1545C28.2965 33.2454 30.9815 32.2907 31.9306 32.6993C32.1187 32.7806 32.199 32.9016 32.199 33.1046C32.199 34.1916 30.3517 37.7321 28.2946 39.1114Z" fill="rgba(25, 4, 35, 0.7)"/>
<path d="M17.245 5.97525C17.3845 5.7647 17.6682 5.49173 18.2071 5.47183C18.9154 5.44328 19.8063 5.69008 19.8448 5.7008C20.208 5.79755 20.5563 5.97323 20.8838 6.20535C20.8846 6.2052 20.8857 6.20538 20.8865 6.20523C21.1043 6.15903 21.4626 5.97453 21.4062 5.58173C21.3489 5.1827 21.2593 4.72495 21.2011 4.42043C21.1582 4.19585 21.0633 3.6935 20.5924 3.73648C20.1215 3.77948 18.5663 3.9293 18.3385 3.96778C17.9157 4.03923 17.7351 4.2918 17.7351 4.2918C17.7351 4.2918 17.5241 4.0162 16.8789 4.06548L14.7115 4.23105C14.5413 4.24405 14.3754 4.28225 14.2169 4.34548C13.3499 4.69113 10.3952 5.8621 10.1787 5.9688C9.87964 6.11615 9.08294 7.67165 9.87789 7.67165C10.2794 7.67165 10.4293 6.66038 10.6633 6.54905C10.7989 6.48453 11.1587 6.3479 11.3083 6.28973C11.3677 6.2666 11.4344 6.29328 11.462 6.35063L11.9152 7.29275C11.9919 7.45233 12.1755 7.53025 12.3441 7.47478L13.9524 7.0089C14.2568 6.72495 14.6075 6.49285 15.0124 6.33905C16.1696 5.89933 16.8919 5.91568 17.245 5.97525Z" fill="rgba(25, 4, 35, 0.7)"/>
<path d="M17.4162 5.7963L17.2257 4.83018C17.2257 4.83018 17.2106 4.5632 16.9249 4.5875L14.7053 4.7763C14.7053 4.7763 14.4297 4.7695 14.4914 5.09118L14.6774 6.0596C14.6774 6.0596 14.6895 6.29895 15.0741 6.26228L17.4622 6.03443L17.4162 5.7963Z" fill="rgba(25, 4, 35, 0.7)"/>
<path d="M20.859 5.47932L20.6793 4.5115C20.6467 4.33582 20.4832 4.21537 20.3052 4.23592L18.3825 4.4579C18.3825 4.4579 18.0682 4.4777 18.1213 4.74927L18.3048 5.6891C18.3374 5.849 18.5841 5.94377 18.732 5.94377C18.732 5.94377 20.4303 5.78137 20.6475 5.75975C20.9094 5.7337 20.859 5.47932 20.859 5.47932Z" fill="rgba(25, 4, 35, 0.7)"/>
<path fill-rule="evenodd" clip-rule="evenodd" d="M16.5083 4.53974C16.6244 4.6144 16.658 4.76908 16.5834 4.88522L15.4584 6.63522C15.3837 6.75136 15.229 6.78499 15.1129 6.71033C14.9967 6.63566 14.9631 6.48098 15.0378 6.36484L16.1628 4.61484C16.2374 4.4987 16.3921 4.46507 16.5083 4.53974Z" fill="white"/>
<path fill-rule="evenodd" clip-rule="evenodd" d="M20.0083 4.28974C20.1244 4.3644 20.158 4.51908 20.0834 4.63522L18.9584 6.38522C18.8837 6.50136 18.729 6.53499 18.6129 6.46033C18.4967 6.38566 18.4631 6.23098 18.5378 6.11484L19.6628 4.36484C19.7374 4.2487 19.8921 4.21507 20.0083 4.28974Z" fill="white"/>
<path d="M25.5375 8.76578C24.4086 8.01513 22.9433 7.6384 22.2391 7.45738C22.1662 7.43868 22.1072 7.4233 22.0553 7.40938C21.7181 6.924 21.3207 6.51348 20.8858 6.2053C20.5582 5.97318 20.21 5.7975 19.8468 5.70075C19.8083 5.69003 18.9174 5.44323 18.2091 5.47178C17.6702 5.49165 17.3865 5.76465 17.2469 5.9752C16.8939 5.91563 16.1716 5.89933 15.0144 6.33905C14.6095 6.49285 14.2588 6.72495 13.9544 7.0089C13.1708 7.73988 12.704 8.82598 12.4849 9.88965C11.7575 10.3754 11.0087 11.0433 10.5819 11.8947C10.5138 12.0304 10.569 12.1956 10.7052 12.2634C10.7447 12.2832 10.7868 12.2924 10.8281 12.2924C10.9293 12.2924 11.0265 12.2368 11.0749 12.1404C11.3666 11.5586 11.8488 11.058 12.3679 10.651C12.3648 10.6812 12.3604 10.7121 12.3578 10.7421C12.2713 11.6412 12.3678 12.3386 12.5587 12.8841C12.2541 13.3125 11.9817 13.7888 11.7969 14.2976C11.745 14.4402 11.819 14.5978 11.9622 14.6495C11.9931 14.6607 12.0248 14.666 12.056 14.666C12.1687 14.666 12.2745 14.5966 12.3151 14.4847C12.4425 14.1342 12.6226 13.7946 12.8293 13.473C13.1937 14.0837 13.6854 14.4137 14.0591 14.5867C14.1595 14.6332 14.2649 14.6722 14.3719 14.7081C15.8242 18.5904 16.1926 22.9624 16.4664 27.4817C16.5135 28.028 16.9246 28.4515 17.423 28.4667C17.4312 28.4669 17.4396 28.4672 17.4479 28.4672C17.8551 28.4672 18.3634 28.1631 18.4922 27.2962C19.1643 22.5096 19.1445 18.0331 18.9696 15.5116C18.9933 15.5038 19.0176 15.4983 19.0411 15.4899C19.1372 15.4556 19.2291 15.4152 19.3183 15.3713C20.446 18.7016 20.6836 21.035 20.9784 23.9614C21.0662 24.8324 21.1568 25.733 21.2774 26.7382C21.3395 27.3114 21.7427 27.7269 22.2362 27.7269H22.2375C22.6642 27.7262 23.1552 27.3938 23.2536 26.463C23.9498 19.9642 22.9816 14.3371 22.7106 12.9503C23.1551 12.4596 23.2049 11.857 23.2049 11.1989C23.2136 10.7926 23.1762 10.3861 23.1055 9.98695C23.6151 10.3018 24.3418 10.8085 24.9525 11.4996C25.0069 11.5613 25.0829 11.5928 25.1593 11.5928C25.2241 11.5928 25.2892 11.5702 25.3416 11.5241C25.4556 11.4239 25.4666 11.2501 25.366 11.1363C24.4763 10.1294 23.3744 9.4967 22.9303 9.24553C22.8092 8.84025 22.6535 8.44918 22.4643 8.08473C23.2036 8.28345 24.3431 8.63215 25.2317 9.22303C25.2787 9.25425 25.3318 9.26925 25.3844 9.26925C25.4734 9.26925 25.5608 9.2263 25.6139 9.1469C25.6983 9.0205 25.664 8.84995 25.5375 8.76578ZM18.9246 14.9427C18.8845 14.4944 18.8398 14.1341 18.7949 13.8734C18.9934 13.7371 19.186 13.5929 19.3628 13.4323C19.4672 13.5068 19.5851 13.5624 19.6879 13.6022C19.802 13.6465 19.9378 13.6843 20.0862 13.7138C19.8559 14.3162 19.4658 14.7281 18.9246 14.9427ZM22.6538 11.193C22.6538 11.8283 22.6162 12.2947 22.2204 12.6635C22.1349 12.7396 22.0461 12.8051 21.956 12.8622C21.8693 12.9156 21.7728 12.967 21.6634 13.0163C21.5814 13.0534 21.4996 13.0812 21.4179 13.1074C21.3646 13.1238 21.3124 13.1382 21.2612 13.1503C21.235 13.1567 21.2089 13.1626 21.1828 13.168C21.107 13.1836 21.0344 13.1954 20.9669 13.2036C20.9358 13.2072 20.9049 13.2106 20.8743 13.2129C20.8309 13.2167 20.7898 13.2195 20.7523 13.221C20.3121 13.2329 19.9401 13.128 19.7513 13.0281C20.0927 12.604 20.7408 11.5736 20.3641 10.1963C20.3241 10.0499 20.1728 9.96288 20.0257 10.0035C19.8789 10.0434 19.7923 10.1944 19.8325 10.341C20.2329 11.8053 19.2236 12.8023 19.1804 12.8441C19.1797 12.8448 19.1795 12.8458 19.1787 12.8465C19.1775 12.8477 19.1758 12.8485 19.1745 12.8498C18.9295 13.0998 18.649 13.3221 18.3466 13.5147L18.346 13.515C17.9146 13.7811 17.465 13.9828 17.0168 14.124C16.9449 14.1459 16.8729 14.1674 16.8008 14.1862C16.7696 14.1946 16.7386 14.2013 16.7075 14.209C16.0974 14.3564 15.4859 14.3879 14.9434 14.2878C14.88 14.2756 14.817 14.2629 14.7554 14.247C14.5929 14.2063 14.4363 14.1554 14.2911 14.0882C13.7891 13.8556 13.4191 13.4781 13.1829 12.9718C13.8451 12.1119 14.6342 11.4472 14.9959 11.1926C15.1203 11.1051 15.1499 10.9336 15.0621 10.8097C14.9745 10.6857 14.8021 10.6559 14.6781 10.7437C14.6644 10.7532 13.7943 11.3748 12.975 12.3491C12.8749 11.8984 12.8503 11.3788 12.9067 10.7925C12.9232 10.6053 12.9481 10.4136 12.9813 10.2201C13.6104 9.82325 14.2079 9.5683 14.5105 9.4838C14.657 9.44293 14.7425 9.29118 14.7014 9.14503C14.6605 8.99888 14.509 8.91385 14.3617 8.9546C14.1598 9.011 13.6964 9.18925 13.1502 9.48643C13.4797 8.34103 14.1306 7.26295 15.2106 6.85263C15.9717 6.5635 16.511 6.49615 16.8485 6.49615C17.1424 6.49615 17.2832 6.54728 17.2839 6.5475C17.2933 6.55153 17.3035 6.55508 17.3131 6.558C17.3169 6.5591 17.6907 6.67328 17.966 6.90558C18.0391 6.96718 18.1212 7.046 18.2076 7.12883C18.5871 7.49213 18.9788 7.8675 19.3604 7.6955C19.6931 7.54473 19.654 7.15238 19.6227 6.83703C19.6063 6.67343 19.5861 6.46995 19.625 6.37943C19.6732 6.26708 19.7275 6.24683 19.7528 6.244C20.4795 6.44703 21.1452 7.0124 21.6561 7.77433C21.6605 7.78315 21.6663 7.7906 21.6717 7.79893C22.0016 8.2968 22.2655 8.8761 22.4361 9.49518C22.4379 9.50265 22.4403 9.5095 22.4427 9.51685C22.5894 10.0569 22.6661 10.6253 22.6538 11.193Z" fill="rgba(25, 4, 35, 0.7)"/>
<path d="M20.6555 13.7735C20.4278 14.4801 20.0369 14.8815 19.8008 15.0711C20.9858 18.5278 21.2256 20.908 21.5275 23.9064C21.6151 24.7748 21.7057 25.6726 21.8258 26.6759C21.8613 27.0026 22.0641 27.1771 22.2371 27.1771H22.2376C22.4727 27.1768 22.6567 26.8736 22.7063 26.4049C23.3532 20.3667 22.5466 15.0917 22.2253 13.3447C21.6232 13.7176 21.0025 13.773 20.6555 13.7735Z" fill="white"/>
<path d="M18.2855 14.1836C17.201 14.7656 16.0315 15.0068 15.0156 14.8631C16.3892 18.7267 16.7468 23.0189 17.0148 27.4415C17.0406 27.7404 17.2525 27.9114 17.4386 27.9173H17.4488C17.6913 27.9173 17.881 27.6506 17.9454 27.2177C18.7664 21.369 18.549 16.0133 18.2855 14.1836Z" fill="white"/>
<path d="M46.75 30.75H42.25V24.75H40.75V18.75H39.25V14.25H37.75L37.75 9.75002L40.75 9.75L40.75 14.25H42.25V18.75H43.75V26.25H45.25V21.75H46.75V14.25H48.25V9.75H52.75V14.25H54.25V21.75H55.75V26.25H57.2812V18.75H58.75V14.25H60.25V9.75H62.875V14.25H61.75V18.75H60.25V24.75H58.75V30.75H54.25V27.75H52.75V21.75H51.25V14.25H49.75V21.75H48.25V27.75H46.75V30.75Z" fill="rgba(25, 4, 35, 0.7)"/>
<path d="M65.5 30.75H62.5V26.25H64V21.75H65.5V17.25H67V12.75H68.5V9.75001H73V12.75H74.5V17.25H76V21.75H77.5V26.25H79V30.75H76V26.25H65.5V30.75ZM67 23.25H74.5V21.75H73V17.25H71.5051V14.3051H69.9715L70 17.25H68.5V21.75H67V23.25Z" fill="rgba(25, 4, 35, 0.7)"/>
<path d="M95.5 30.75H81.25V9.75H84.25V27.75H95.5V30.75Z" fill="rgba(25, 4, 35, 0.7)"/>
<path d="M100.75 30.75H97.75V9.75001H111.25V11.25H112.75V12.75H114.25V19.5H112.75V21H111.25V22.5H112.75V24H114.25V30.75H111.25V25.5H109.75V24H108.25V22.5H100.75V30.75ZM100.75 19.5H109.75V18H111.25V14.25H109.75V12.75H100.75V19.5Z" fill="rgba(25, 4, 35, 0.7)"/>
<path d="M128.5 30.75H119.5V29.25H118V27.75H116.5V9.75001H119.5V26.25H121V27.75H127V26.25H128.5V9.75001H131.5V27.75H130V29.25H128.5V30.75Z" fill="rgba(25, 4, 35, 0.7)"/>
<path d="M147.25 30.75H136.75V29.25H135.25V27.75H133.75V24.75H136.75V26.25H138.25V27.75H145.75V26.25H147.25V23.25H145.75V21.75H138.25V20.25H135.25V18.75H133.75V12.75H135.25V11.25H136.75V9.75001H147.25V11.25H148.75V12.75H150.25V15.75H147.25V14.25H145.75V12.75H138.25V14.25H136.75V17.25H138.25V18.75H145.75V20.25H148.75V21.75H150.25V27.75H148.75V29.25H147.25V30.75Z" fill="rgba(25, 4, 35, 0.7)"/>
</svg>
